<?xml version="1.0" encoding="UTF-8"?>
<svg id="Layer_1" data-name="Layer 1" xmlns="http://www.w3.org/2000/svg" xmlns:xlink="http://www.w3.org/1999/xlink" viewBox="0 0 660 232">
  <defs>
    <radialGradient id="radial-gradient" cx="-1885.07" cy="654.99" fx="-1885.07" fy="654.99" r=".5" gradientTransform="translate(2488953 864489.85) scale(1320 -1320)" gradientUnits="userSpaceOnUse">
      <stop offset="0" stop-color="#fff"/>
      <stop offset="1" stop-color="#fff" stop-opacity="0"/>
    </radialGradient>
  </defs>
  <g id="Background">
    <rect y="-101.65" width="660" height="435" style="fill: #1d328d;"/>
  </g>
  <g id="Gradient">
    <rect y="-536.65" width="1320" height="870" style="fill: url(#radial-gradient); isolation: isolate; opacity: .25;"/>
  </g>
  <g>
    <g>
      <path d="M269,155.37c-2.27,0-4.17-.52-5.71-1.57s-2.47-2.5-2.79-4.35l3.91-.91c.18,1.17.69,2.08,1.55,2.72.85.64,1.92.96,3.19.96,1.06,0,1.94-.24,2.63-.72s1.03-1.21,1.02-2.18c0-.29-.05-.57-.15-.83s-.23-.48-.37-.67c-.15-.19-.36-.38-.64-.56s-.53-.33-.76-.46c-.23-.12-.54-.25-.94-.39s-.74-.25-1.01-.33-.64-.19-1.1-.33c-.09-.03-.16-.05-.21-.06-.56-.17-1.01-.3-1.36-.42-.35-.11-.78-.27-1.27-.48s-.91-.41-1.22-.6-.65-.44-1.01-.75-.63-.62-.83-.96c-.2-.34-.37-.73-.51-1.19s-.21-.96-.21-1.49c0-1.26.32-2.35.97-3.27.65-.92,1.52-1.61,2.6-2.06s2.31-.67,3.69-.67c.95,0,1.85.1,2.7.31s1.65.52,2.39.93,1.37.98,1.89,1.68c.52.71.88,1.53,1.08,2.45l-3.66.91c-.21-1.05-.69-1.84-1.43-2.37-.74-.52-1.66-.78-2.76-.78-1.04,0-1.9.23-2.59.7-.69.46-1.04,1.17-1.04,2.1,0,.35.08.67.25.95s.38.52.64.71c.26.19.6.38,1.03.56s.83.33,1.22.45c.39.12.86.26,1.43.42.05,0,.09.02.12.03.85.24,1.52.45,2.01.62s1.1.43,1.82.79,1.29.74,1.68,1.13c.4.4.74.92,1.05,1.57s.45,1.37.45,2.17c0,1.05-.21,1.99-.63,2.81s-.99,1.47-1.72,1.96-1.54.85-2.45,1.1-1.88.37-2.92.37Z" style="fill: #cefbf4;"/>
      <path d="M293.46,134.09h4.03l-7.73,20.99h-4.12l-7.71-20.99h4.03l5.76,16.48,5.74-16.48Z" style="fill: #cefbf4;"/>
      <path d="M308.95,155.37c-1.99,0-3.78-.43-5.35-1.29s-2.82-2.11-3.74-3.75-1.37-3.54-1.37-5.7.46-4.09,1.39-5.75c.93-1.66,2.19-2.92,3.79-3.78,1.6-.87,3.42-1.3,5.45-1.3s3.8.42,5.39,1.27,2.84,2.07,3.75,3.65l-3.35,1.79c-.58-1.11-1.37-1.95-2.37-2.51s-2.14-.84-3.41-.84c-1.99,0-3.63.65-4.91,1.96s-1.92,3.12-1.92,5.42.64,4.11,1.91,5.46c1.27,1.34,2.96,2.01,5.05,2.01,1.59,0,2.95-.42,4.09-1.27s1.83-2.09,2.09-3.74h-6.18v-3.11h9.81v11.18h-3.03v-3.25c-.69,1.13-1.64,2.01-2.83,2.62s-2.61.92-4.26.92Z" style="fill: #cefbf4;"/>
      <path d="M323.27,148.81v-3.06h10.5v3.06h-10.5Z" style="fill: #cefbf4;"/>
      <path d="M345.76,155.37c-2.27,0-4.17-.52-5.71-1.57-1.54-1.04-2.47-2.5-2.79-4.35l3.91-.91c.18,1.17.69,2.08,1.54,2.72.85.64,1.92.96,3.19.96,1.06,0,1.94-.24,2.63-.72.69-.48,1.03-1.21,1.02-2.18,0-.29-.05-.57-.15-.83-.1-.26-.23-.48-.37-.67-.15-.19-.36-.38-.64-.56-.28-.18-.53-.33-.76-.46-.23-.12-.54-.25-.95-.39s-.74-.25-1.01-.33-.64-.19-1.1-.33c-.09-.03-.16-.05-.21-.06-.56-.17-1.01-.3-1.36-.42-.35-.11-.78-.27-1.27-.48s-.91-.41-1.22-.6c-.32-.2-.66-.44-1.01-.75s-.63-.62-.83-.96c-.2-.34-.37-.73-.51-1.19s-.21-.96-.21-1.49c0-1.26.32-2.35.97-3.27.65-.92,1.52-1.61,2.6-2.06s2.31-.67,3.69-.67c.95,0,1.85.1,2.7.31.85.21,1.65.52,2.39.93s1.37.98,1.89,1.68c.52.71.88,1.53,1.08,2.45l-3.66.91c-.21-1.05-.69-1.84-1.43-2.37-.74-.52-1.66-.78-2.76-.78-1.04,0-1.9.23-2.59.7-.69.46-1.04,1.17-1.04,2.1,0,.35.08.67.25.95s.38.52.64.71c.26.19.6.38,1.03.56.42.18.83.33,1.21.45.39.12.86.26,1.43.42.05,0,.09.02.12.03.85.24,1.52.45,2.01.62s1.1.43,1.82.79c.73.36,1.29.74,1.68,1.13s.75.92,1.05,1.57.45,1.37.45,2.17c0,1.05-.21,1.99-.63,2.81s-.99,1.47-1.72,1.96-1.54.85-2.45,1.1c-.9.24-1.88.37-2.92.37Z" style="fill: #cefbf4;"/>
      <path d="M366.29,134.09c1.95,0,3.53.64,4.73,1.93s1.8,2.87,1.8,4.75-.6,3.48-1.79,4.72c-1.2,1.24-2.78,1.86-4.74,1.86h-4.67v7.73h-3.81v-20.99h8.48ZM365.68,144.14c1.12,0,1.98-.31,2.57-.92.59-.62.89-1.45.89-2.5s-.3-1.85-.89-2.48-1.45-.94-2.56-.94h-4.06v6.84h4.06Z" style="fill: #cefbf4;"/>
      <path d="M387.99,155.08l-5.43-9.32h-1.92v9.32h-3.82v-20.99h7.4c1.12,0,2.11.16,2.97.48.86.32,1.55.76,2.07,1.33.52.57.91,1.22,1.17,1.96s.39,1.53.39,2.4c0,1.39-.38,2.53-1.15,3.44s-1.89,1.51-3.38,1.82l6.18,9.57h-4.48ZM380.63,137.3v5.42h3c1.2,0,2.09-.24,2.67-.72.58-.48.87-1.14.87-1.98s-.29-1.5-.87-1.99c-.58-.49-1.47-.73-2.67-.73h-3Z" style="fill: #cefbf4;"/>
      <path d="M396.1,155.08v-20.99h3.81v20.99h-3.81Z" style="fill: #cefbf4;"/>
      <path d="M417.5,134.09v3.37h-5.13v17.62h-3.76v-17.62h-5.14v-3.37h14.03Z" style="fill: #cefbf4;"/>
      <path d="M432.93,137.46h-8.01v5.46h7.09v3.34h-7.09v5.43h8.01v3.38h-11.87v-20.99h11.87v3.37Z" style="fill: #cefbf4;"/>
    </g>
    <g id="SvgjsG11447">
      <path d="M262.29,115.33v-34.34h11.65c10.66,0,16.18,6.91,16.18,17.17s-5.33,17.17-16.18,17.17h-11.65ZM268.01,110.2h5.72c7.11,0,10.26-4.54,10.26-12.04s-3.36-12.04-10.26-12.04h-5.72v24.08h0ZM312.62,115.73c-9.87,0-17.37-6.71-17.37-17.57s7.5-17.57,17.37-17.57,17.37,6.71,17.37,17.57c-.2,10.86-7.5,17.57-17.37,17.57ZM312.62,110.4c6.51,0,11.65-4.54,11.65-12.24s-5.13-12.24-11.65-12.24-11.65,4.54-11.65,12.24c0,7.7,5.13,12.24,11.65,12.24ZM356.24,80.99v5.13h-8.49v29.21h-5.72v-29.21h-8.49v-5.13h22.7Z" style="fill: #cefbf4;"/>
    </g>
    <g id="SvgjsG11448">
      <path d="M406.83,115.74h-7.2l-2.4-26.61-9,26.61h-4.8l-9-26.61-2.4,26.61h-7.4l3-35.22h10.41l7.6,22.21,7.8-22.21h10.41l3,35.22ZM438.05,115.74l-2.6-7.2h-14.81l-2.6,7.2h-7.4l13.01-35.22h9l13.01,35.22h-7.6ZM422.84,102.33h10.61l-5.2-15.01-5.4,15.01ZM471.67,115.74l-11.01-15.01h-2.6v15.01h-7.4v-35.22h7.4v13.81h2.4l11.01-13.81h9l-13.61,16.81,14.01,18.41h-9.21ZM506.69,86.92h-13.01v8h11.61v6.4h-11.61v8h13.01v6.4h-20.41v-35.22h20.41v6.4h0Z" style="fill: #cefbf4;"/>
    </g>
  </g>
  <g id="SvgjsG11446">
    <path d="M184.28,123.83h-25.99c-2.73,0-4.97,2.25-4.97,4.97v25.99c0,2.73,2.25,4.97,4.97,4.97h25.99c2.73,0,4.97-2.25,4.97-4.97v-25.99c0-2.73-2.25-4.97-4.97-4.97Z" style="fill: #fff;"/>
    <path d="M202.33,159.85h25.99c2.73,0,4.97-2.25,4.97-4.97v-25.99c0-2.73-2.25-4.97-4.97-4.97h-25.99c-2.73,0-4.97,2.25-4.97,4.97v25.91c-.08,2.81,2.17,5.05,4.97,5.05Z" style="fill: #fff;"/>
    <path d="M189.25,84.77c0-2.73-2.25-4.97-4.97-4.97h-25.99c-2.73,0-4.97,2.25-4.97,4.97v25.99c0,2.73,2.25,4.97,4.97,4.97h25.99c2.73,0,4.97-2.25,4.97-4.97v-25.99h0Z" style="fill: #fff;"/>
    <path d="M241.31,102.82v-25.99c0-2.73-2.25-4.97-4.97-4.97h-25.99c-2.73,0-4.97,2.25-4.97,4.97v25.99c0,2.73,2.25,4.97,4.97,4.97h25.99c2.73,0,4.97-2.25,4.97-4.97Z" style="fill: #fff;"/>
  </g>
</svg>